<?xml version="1.0" encoding="utf-8"?>
<!-- Generator: Adobe Illustrator 27.5.0, SVG Export Plug-In . SVG Version: 6.00 Build 0)  -->
<svg version="1.1" id="Capa_1" xmlns="http://www.w3.org/2000/svg" xmlns:xlink="http://www.w3.org/1999/xlink" x="0px" y="0px"
	 viewBox="0 0 425.197 425.197" style="enable-background:new 0 0 425.197 425.197;" xml:space="preserve">
<g id="Paquete_de_vectores:_motivo_de_puntos_15">
</g>
<g id="Paquete_de_vectores:_motivo_de_puntos_15_1_">
</g>
<g id="Paquete_de_vectores:_motivo_de_puntos_03">
</g>
<g>
	<rect x="0" style="opacity:0.2;fill:#B1DCE5;" width="425.197" height="425.197"/>
	<g>
		<g>
			<g>
				<g>
					<path style="fill:#F1A167;" d="M291.346,212.277c2.299-0.319,6.612-5.612,7.645-8.872c1.671-5.19-0.318-10.579-3.275-11.144
						c-2.977-0.543-5.14,2.754-6.807,7.366c-0.289,0.77-0.872,1.224-1.05,0.063c-0.343-2.333-1.067-3.398-1.798-3.279
						c-1.115,0.188-3.465,9.168-2.025,11.781C285.078,210.076,286.737,212.914,291.346,212.277z"/>
					<path style="fill:#85C7C6;" d="M249.073,352.662c-2.339,5.305-26.542-17.048-24.208-22.356l30.158-61.478
						c2.333-5.304,8.532-7.709,13.836-5.368l0,0c5.307,2.329,7.709,8.528,5.376,13.831L249.073,352.662z"/>
					<path style="fill:#85C7C6;" d="M273.76,278.065c-1.998,5.437-8.031,8.228-13.468,6.227l0,0
						c-5.438-2.007-8.232-8.034-6.23-13.469l28.402-62.332c1.179-1.19,13.935,3.265,13.117,5.73L273.76,278.065z"/>
				</g>
			</g>
			<g>
				<g>
					<path style="fill:#F1A167;" d="M133.851,212.277c-2.298-0.319-6.611-5.612-7.644-8.872c-1.671-5.19,0.318-10.579,3.275-11.144
						c2.977-0.543,5.139,2.754,6.807,7.366c0.289,0.77,0.872,1.224,1.049,0.063c0.344-2.333,1.068-3.398,1.798-3.279
						c1.115,0.188,3.465,9.168,2.025,11.781C140.12,210.076,138.46,212.914,133.851,212.277z"/>
					<path style="fill:#85C7C6;" d="M176.124,352.662c2.338,5.305,26.542-17.048,24.208-22.356l-30.158-61.478
						c-2.333-5.304-8.532-7.709-13.836-5.368l0,0c-5.307,2.329-7.709,8.528-5.375,13.831L176.124,352.662z"/>
					<path style="fill:#85C7C6;" d="M151.439,278.065c1.995,5.437,8.028,8.228,13.466,6.227l0,0
						c5.438-2.007,8.232-8.034,6.23-13.469l-28.402-62.332c-1.179-1.19-13.935,3.265-13.116,5.73L151.439,278.065z"/>
				</g>
			</g>
			<path style="fill:#85C7C6;" d="M249.073,425.197v-72.535c0-10.8-16.933-23.624-30.128-23.624l-5.57-0.09v-0.026l-0.607,0.021
				l-0.62-0.021v0.026l-5.574,0.09c-13.197,0-30.128,12.824-30.128,23.624v72.535H249.073z"/>
			<g>
				<g>
					<path style="fill:#F1A167;" d="M220.637,316.603h-13.515v13.833c0,1.959,0.835,4.191,7.254,4.191
						c4.06,0,5.846-1.877,6.261-3.525V316.603z"/>
					<path style="fill:#F1A167;" d="M232.097,306.358c0,10.245-8.794,17.269-17.816,17.269c-8.663,0-17.795-7.27-17.795-17.663
						v-9.292c0-9.779,7.966-17.698,17.795-17.698l0,0c9.849,0,17.816,7.919,17.816,17.698V306.358z"/>
					<g>
						<g>
							<g>
								<path style="fill:#1B2A67;" d="M223.976,304.211c-1.02,0-1.485-1.35-1.485-2.608c0-0.158,0.132-0.292,0.293-0.292
									c0.163,0,0.294,0.134,0.294,0.292c0,0.972,0.342,2.02,0.898,2.02c0.224,0,0.459-0.221,0.625-0.592
									c0.174-0.371,0.279-0.902,0.279-1.428c0-0.158,0.132-0.292,0.293-0.292c0.162,0,0.295,0.134,0.295,0.292
									c0,0.608-0.125,1.233-0.332,1.673C224.87,303.867,224.446,304.211,223.976,304.211z"/>
							</g>
						</g>
						<g>
							<g>
								<path style="fill:#1B2A67;" d="M203.773,304.211c-0.973,0-1.482-1.311-1.482-2.608c0-0.158,0.132-0.292,0.292-0.292
									c0.164,0,0.294,0.134,0.294,0.292c0,0.972,0.343,2.02,0.895,2.02c0.31,0,0.525-0.371,0.627-0.595
									c0.172-0.361,0.274-0.893,0.274-1.425c0-0.158,0.133-0.292,0.296-0.292c0.161,0,0.291,0.134,0.291,0.292
									c0,0.626-0.12,1.235-0.328,1.673C204.658,303.877,204.246,304.211,203.773,304.211z"/>
							</g>
						</g>
					</g>
					<g>
						<path style="fill:#FFFFFF;" d="M217.805,316.531c0,2.227-1.3,4.038-2.906,4.038c-1.605,0-2.905-1.812-2.905-4.038
							c0-2.23,1.301-4.039,2.905-4.039C216.505,312.492,217.805,314.302,217.805,316.531z"/>
						<path style="fill:#EB8793;" d="M214.899,316.531c-1.084,0-2.054,0.487-2.746,1.261c0.384,1.605,1.462,2.777,2.746,2.777
							c1.285,0,2.364-1.173,2.746-2.777C216.955,317.019,215.983,316.531,214.899,316.531z"/>
					</g>
					<g>
						<path style="fill:#F1A167;" d="M235.212,304.051c0,1.521-1.22,2.76-2.741,2.76c-1.523,0-2.759-1.238-2.759-2.76
							c0-1.523,1.236-2.758,2.759-2.758C233.993,301.293,235.212,302.528,235.212,304.051z"/>
						<path style="fill:#F1A167;" d="M198.873,304.051c0,1.521-1.245,2.76-2.768,2.76c-1.522,0-2.76-1.238-2.76-2.76
							c0-1.523,1.238-2.758,2.76-2.758C197.628,301.293,198.873,302.528,198.873,304.051z"/>
					</g>
					<g>
						<g>
							<g>
								<path style="fill:#1B2A67;" d="M215.962,310.103c-0.128,0-0.242-0.018-0.375-0.025c-0.205-0.019-0.367-0.215-0.34-0.413
									c0.011-0.204,0.187-0.387,0.411-0.357c0.784,0.071,1.372-0.143,1.443-0.327c0.023-0.065-0.053-0.337-0.693-0.757
									c-1.926-1.318-2.148-5.882-2.172-6.074c0-0.224,0.16-0.397,0.374-0.397c0.225-0.03,0.396,0.151,0.405,0.36
									c0.05,1.212,0.493,4.56,1.823,5.464c0.845,0.585,1.176,1.135,0.989,1.667C217.607,309.849,216.779,310.103,215.962,310.103z
									"/>
							</g>
						</g>
					</g>
					<g>
						<g>
							<path style="fill:#EB7F5D;" d="M228.42,308.636c0,1.48-1.851,2.704-4.13,2.704c-2.286,0-4.136-1.224-4.136-2.704
								c0-1.504,1.851-2.718,4.136-2.718C226.569,305.918,228.42,307.132,228.42,308.636z"/>
						</g>
						<g>
							<path style="fill:#EB7F5D;" d="M208.42,308.636c0,1.48-1.85,2.704-4.145,2.704c-2.271,0-4.128-1.224-4.128-2.704
								c0-1.504,1.857-2.718,4.128-2.718C206.57,305.918,208.42,307.132,208.42,308.636z"/>
						</g>
					</g>
					<path style="fill:#1B2A67;" d="M201.16,282.342c0,0,8.58-10.916,24.029-5.48c13.931,4.902,7.904,24.851,7.904,24.851
						s-5.205-1.78-13.467-10.269c-0.89-0.911,0.82,7.697-1.04,7.697c-10.321,0-9.676-9.049-10.167-9.049
						c-3.539,0-7.437,2.423-8.272,5.982c-0.463,1.935-2.067,7.977-2.067,7.977s-2.048,0.48-3.079-7.342
						C193.98,288.887,193.852,279.525,201.16,282.342z"/>
				</g>
			</g>
		</g>
		<g>
			<g>
				<path style="fill:#A995C3;" d="M256.391,80.854c0,24.186-19.606,43.793-43.792,43.793c-24.186,0-43.792-19.607-43.792-43.793
					c0-24.186,19.607-43.79,43.792-43.79C236.784,37.064,256.391,56.669,256.391,80.854z"/>
				<path style="fill:#A995C3;" d="M361.62,273.668c-24.185,0-43.791-19.605-43.791-43.792c0-24.186,19.606-43.791,43.791-43.791
					c24.185,0,43.791,19.605,43.791,43.791C405.411,254.063,385.804,273.668,361.62,273.668z"/>
				<path style="fill:#A995C3;" d="M63.578,273.668c-24.185,0-43.791-19.605-43.791-43.792c0-24.186,19.606-43.791,43.791-43.791
					c24.185,0,43.791,19.605,43.791,43.791C107.369,254.063,87.763,273.668,63.578,273.668z"/>
				<path style="fill:#A995C3;" d="M348.938,155.467c-17.102,17.102-44.829,17.102-61.931,0c-17.102-17.102-17.102-44.829,0-61.93
					c17.101-17.103,44.828-17.103,61.93,0.001C366.039,110.64,366.039,138.366,348.938,155.467z"/>
				<path style="fill:#A995C3;" d="M76.26,155.467c-17.101-17.101-17.102-44.827,0-61.929c17.103-17.104,44.829-17.104,61.931,0
					c17.101,17.1,17.102,44.826,0,61.929C121.088,172.569,93.361,172.568,76.26,155.467z"/>
			</g>
			<g>
				<g>
					<g>
						<g>
							<path style="fill:#354B99;" d="M118.959,113.219c0.664,0.139,1.382-0.062,1.882-0.59l6.457-6.798
								c0.772-0.812,0.739-2.095-0.074-2.867c-0.812-0.771-2.096-0.739-2.867,0.072l-6.457,6.798
								c-0.771,0.815-0.738,2.099,0.075,2.87C118.258,112.974,118.601,113.146,118.959,113.219z"/>
						</g>
						<g>
							<path style="fill:#354B99;" d="M132.002,113.653c2.989-4.74,2.12-11.073-2.282-14.791
								c-4.402-3.721-10.791-3.523-14.965,0.209L132.002,113.653z"/>
						</g>
					</g>
					<g>
						<g>
							<path style="fill:#354B99;" d="M95.491,113.219c-0.664,0.139-1.381-0.062-1.882-0.59l-6.457-6.798
								c-0.772-0.812-0.738-2.095,0.075-2.867c0.81-0.771,2.095-0.739,2.867,0.072l6.457,6.798c0.771,0.815,0.738,2.099-0.075,2.87
								C96.192,112.974,95.85,113.146,95.491,113.219z"/>
						</g>
						<g>
							<path style="fill:#354B99;" d="M82.448,113.653c-2.989-4.74-2.12-11.073,2.282-14.791c4.401-3.721,10.791-3.523,14.966,0.209
								L82.448,113.653z"/>
						</g>
					</g>
				</g>
				<g>
					<path style="fill:#354B99;" d="M124.569,150.314c-0.679,0-1.34-0.34-1.725-0.956l-4.952-7.961
						c-0.591-0.952-0.3-2.204,0.652-2.795c0.952-0.591,2.202-0.3,2.793,0.649l4.953,7.962c0.591,0.952,0.299,2.204-0.651,2.795
						C125.305,150.215,124.934,150.314,124.569,150.314z"/>
				</g>
				<g>
					<path style="fill:#354B99;" d="M90.898,150.314c0.678,0,1.34-0.34,1.725-0.956l4.952-7.961
						c0.592-0.952,0.301-2.204-0.651-2.795c-0.952-0.591-2.203-0.3-2.794,0.649l-4.952,7.962c-0.593,0.952-0.3,2.204,0.65,2.795
						C90.162,150.215,90.534,150.314,90.898,150.314z"/>
				</g>
				<g>
					<g>
						<g>
							<path style="fill:#FFFFFF;" d="M107.368,146.171c-11.375,0-20.628-9.254-20.628-20.63c0-11.373,9.253-20.629,20.628-20.629
								s20.628,9.256,20.628,20.629C127.997,136.917,118.743,146.171,107.368,146.171z"/>
						</g>
						<g>
							<path style="fill:#354B99;" d="M107.368,106.17c10.698,0,19.371,8.673,19.371,19.371c0,10.698-8.673,19.372-19.371,19.372
								c-10.701,0-19.374-8.674-19.374-19.372C87.995,114.843,96.667,106.17,107.368,106.17 M107.368,103.657
								c-12.068,0-21.884,9.818-21.884,21.884c0,12.064,9.816,21.883,21.884,21.883c12.067,0,21.884-9.818,21.884-21.883
								C129.252,113.476,119.435,103.657,107.368,103.657L107.368,103.657z"/>
						</g>
					</g>
					<g>
						<g>
							<g>
								<path style="fill:#354B99;" d="M108.164,111.988c0,0.437-0.357,0.794-0.795,0.794l0,0c-0.439,0-0.796-0.358-0.796-0.794
									v-3.358c0-0.442,0.356-0.798,0.796-0.798l0,0c0.438,0,0.795,0.355,0.795,0.798V111.988z"/>
							</g>
							<g>
								<path style="fill:#354B99;" d="M108.164,142.452c0,0.439-0.357,0.796-0.795,0.796l0,0c-0.439,0-0.796-0.357-0.796-0.796
									v-3.356c0-0.441,0.356-0.797,0.796-0.797l0,0c0.438,0,0.795,0.355,0.795,0.797V142.452z"/>
							</g>
						</g>
						<g>
							<g>
								<path style="fill:#354B99;" d="M120.921,126.337c-0.44,0-0.796-0.356-0.796-0.796l0,0c0-0.44,0.356-0.798,0.796-0.798h3.358
									c0.439,0,0.795,0.357,0.795,0.798l0,0c0,0.439-0.357,0.796-0.795,0.796H120.921z"/>
							</g>
							<g>
								<path style="fill:#354B99;" d="M90.456,126.337c-0.44,0-0.796-0.356-0.796-0.796l0,0c0-0.44,0.356-0.798,0.796-0.798h3.357
									c0.442,0,0.797,0.357,0.797,0.798l0,0c0,0.439-0.355,0.796-0.797,0.796H90.456z"/>
							</g>
						</g>
						<g>
							<g>
								<path style="fill:#354B99;" d="M117.514,116.521c-0.312,0.312-0.814,0.312-1.125,0l0,0c-0.312-0.312-0.312-0.816,0-1.127
									l2.373-2.376c0.313-0.311,0.816-0.311,1.127,0l0,0c0.311,0.312,0.311,0.815-0.001,1.127L117.514,116.521z"/>
							</g>
							<g>
								<path style="fill:#354B99;" d="M95.972,138.062c-0.312,0.311-0.814,0.311-1.124,0l0,0c-0.31-0.312-0.31-0.814-0.001-1.125
									l2.374-2.374c0.312-0.311,0.814-0.311,1.126,0l0,0c0.311,0.312,0.311,0.814,0,1.125L95.972,138.062z"/>
							</g>
						</g>
						<g>
							<g>
								<path style="fill:#354B99;" d="M116.388,135.688c-0.312-0.311-0.312-0.813,0-1.125l0,0c0.311-0.311,0.814-0.311,1.125,0
									l2.374,2.374c0.312,0.311,0.312,0.813,0,1.125l0,0c-0.312,0.311-0.814,0.311-1.126,0L116.388,135.688z"/>
							</g>
							<g>
								<path style="fill:#354B99;" d="M94.846,114.146c-0.309-0.312-0.309-0.815,0-1.127l0,0c0.311-0.311,0.814-0.311,1.125,0
									l2.374,2.376c0.312,0.311,0.312,0.815,0,1.127l0,0c-0.312,0.312-0.813,0.312-1.125,0L94.846,114.146z"/>
							</g>
						</g>
						<g>
							<g>
								<path style="fill:#354B99;" d="M108.164,111.988c0,0.437-0.357,0.794-0.795,0.794l0,0c-0.439,0-0.796-0.358-0.796-0.794
									v-3.358c0-0.442,0.356-0.798,0.796-0.798l0,0c0.438,0,0.795,0.355,0.795,0.798V111.988z"/>
							</g>
							<g>
								<path style="fill:#354B99;" d="M108.164,142.452c0,0.439-0.357,0.796-0.795,0.796l0,0c-0.439,0-0.796-0.357-0.796-0.796
									v-3.356c0-0.441,0.356-0.797,0.796-0.797l0,0c0.438,0,0.795,0.355,0.795,0.797V142.452z"/>
							</g>
						</g>
						<g>
							<g>
								<path style="fill:#354B99;" d="M120.921,126.337c-0.44,0-0.796-0.356-0.796-0.796l0,0c0-0.44,0.356-0.798,0.796-0.798h3.358
									c0.439,0,0.795,0.357,0.795,0.798l0,0c0,0.439-0.357,0.796-0.795,0.796H120.921z"/>
							</g>
							<g>
								<path style="fill:#354B99;" d="M90.456,126.337c-0.44,0-0.796-0.356-0.796-0.796l0,0c0-0.44,0.356-0.798,0.796-0.798h3.357
									c0.442,0,0.797,0.357,0.797,0.798l0,0c0,0.439-0.355,0.796-0.797,0.796H90.456z"/>
							</g>
						</g>
						<g>
							<g>
								<path style="fill:#354B99;" d="M117.514,116.521c-0.312,0.312-0.814,0.312-1.125,0l0,0c-0.312-0.312-0.312-0.816,0-1.127
									l2.373-2.376c0.313-0.311,0.816-0.311,1.127,0l0,0c0.311,0.312,0.311,0.815-0.001,1.127L117.514,116.521z"/>
							</g>
							<g>
								<path style="fill:#354B99;" d="M95.972,138.062c-0.312,0.311-0.814,0.311-1.124,0l0,0c-0.31-0.312-0.31-0.814-0.001-1.125
									l2.374-2.374c0.312-0.311,0.814-0.311,1.126,0l0,0c0.311,0.312,0.311,0.814,0,1.125L95.972,138.062z"/>
							</g>
						</g>
						<g>
							<g>
								<path style="fill:#354B99;" d="M116.388,135.688c-0.312-0.311-0.312-0.813,0-1.125l0,0c0.311-0.311,0.814-0.311,1.125,0
									l2.374,2.374c0.312,0.311,0.312,0.813,0,1.125l0,0c-0.312,0.311-0.814,0.311-1.126,0L116.388,135.688z"/>
							</g>
							<g>
								<path style="fill:#354B99;" d="M94.846,114.146c-0.309-0.312-0.309-0.815,0-1.127l0,0c0.311-0.311,0.814-0.311,1.125,0
									l2.374,2.376c0.312,0.311,0.312,0.815,0,1.127l0,0c-0.312,0.312-0.813,0.312-1.125,0L94.846,114.146z"/>
							</g>
						</g>
					</g>
					<g>
						<path style="fill:#F3AB5F;" d="M113.187,126.763h-5.818c-0.643,0-1.166-0.521-1.166-1.163v-10.829
							c0-0.643,0.523-1.166,1.166-1.166c0.643,0,1.165,0.523,1.165,1.166v9.663h4.653c0.643,0,1.165,0.523,1.165,1.166
							C114.351,126.241,113.829,126.763,113.187,126.763z"/>
					</g>
				</g>
			</g>
			<g>
				<g>
					<path style="fill:#FFFFFF;" d="M344.728,147.752c0,3.774-12.584,6.835-28.108,6.835c-15.524,0-28.108-3.061-28.108-6.835
						c0-3.777,12.584-6.837,28.108-6.837C332.143,140.915,344.728,143.975,344.728,147.752z"/>
					<path style="fill:#CCCDD2;" d="M336.068,147.752c0,1.96-8.706,3.552-19.448,3.552c-10.743,0-19.448-1.592-19.448-3.552
						c0-1.962,8.706-3.554,19.448-3.554C327.362,144.198,336.068,145.79,336.068,147.752z"/>
				</g>
				<g>
					<path style="fill:#E7664F;" d="M341.482,126.833c-0.184,1.061-0.436,2.095-0.748,3.104c2.037,0.64,3.528,2.522,3.528,4.768
						c0,2.766-2.25,5.017-5.018,5.017c-1.204,0-2.295-0.442-3.162-1.152c-0.676,0.819-1.406,1.595-2.181,2.323
						c1.435,1.242,3.302,1.999,5.343,1.999c4.515,0,8.187-3.673,8.187-8.187C347.432,130.965,344.911,127.812,341.482,126.833z"/>
					<path style="fill:#E7664F;" d="M316.62,127.001c-13.934,0-25.23-1.804-25.23-4.029c0.247,13.728,11.444,24.78,25.229,24.78
						c13.785,0,24.982-11.053,25.231-24.78C341.85,125.197,330.553,127.001,316.62,127.001z"/>
					<g>
						<path style="fill:#CA5943;" d="M316.62,118.945c13.416,0,24.38,1.673,25.178,3.781c-0.798-3.338-11.762-5.981-25.178-5.981
							c-13.416,0-24.382,2.644-25.179,5.981C292.238,120.618,303.204,118.945,316.62,118.945z"/>
					</g>
					<path style="fill:#65371B;" d="M341.85,122.972c0,2.226-11.297,4.029-25.23,4.029c-13.934,0-25.23-1.804-25.23-4.029
						c0-2.223,11.296-4.026,25.23-4.026C330.553,118.945,341.85,120.749,341.85,122.972z"/>
				</g>
				<path style="fill:#FFFFFF;" d="M312.084,90.706c0,0,10.564,6.427,2.817,9.024c-7.748,2.595-3.83,6.647,2.839,7.702
					c6.668,1.057,8.076,11.27-1.959,13.205c0,0,7.922-2.643,0-6.163c-7.922-3.52-14.614-11.181-7.572-14.744
					C315.253,96.164,315.077,94.578,312.084,90.706z"/>
			</g>
			<g>
				<g>
					<path style="fill:#E7664F;" d="M347.478,256.672c0,0.78-0.633,1.413-1.413,1.413l0,0c-0.781,0-1.414-0.633-1.414-1.413v-56.769
						c0-0.399,0.633-0.885,1.414-0.885c0.759,0,1.413,0.438,1.413,0.885V256.672z"/>
					<g>
						<rect x="347.484" y="199.872" style="fill:#FFFFFF;" width="6.846" height="13.206"/>
						<g>
							<g>
								<g>
									<rect x="347.484" y="199.872" style="fill:#FBE4CB;" width="6.846" height="0.815"/>
								</g>
								<g>
									<rect x="347.484" y="201.641" style="fill:#FBE4CB;" width="6.846" height="0.815"/>
								</g>
								<g>
									<rect x="347.484" y="203.412" style="fill:#FBE4CB;" width="6.846" height="0.813"/>
								</g>
								<g>
									<rect x="347.484" y="205.182" style="fill:#FBE4CB;" width="6.846" height="0.816"/>
								</g>
								<g>
									<rect x="347.484" y="206.952" style="fill:#FBE4CB;" width="6.846" height="0.814"/>
								</g>
								<g>
									<rect x="347.484" y="208.722" style="fill:#FBE4CB;" width="6.846" height="0.815"/>
								</g>
								<g>
									<rect x="347.484" y="210.491" style="fill:#FBE4CB;" width="6.846" height="0.816"/>
								</g>
								<g>
									<rect x="347.484" y="212.261" style="fill:#FBE4CB;" width="6.846" height="0.817"/>
								</g>
							</g>
						</g>
					</g>
				</g>
				<g>
					<g>
						<g>
							<path style="fill:#85C7C6;" d="M375.77,210.133c-0.227-2.114-1.764-4.484-4.108-4.956h-6.489
								c-2.13,0.927-3.494,2.742-3.763,4.956c-1.64,13.388-6.048,47.952-6.048,47.952h26.454
								C381.815,258.085,377.155,223.002,375.77,210.133z"/>
							<rect x="365.173" y="202.657" style="fill:#85C7C6;" width="6.471" height="3.621"/>
						</g>
					</g>
					<rect x="364.903" y="196.38" style="fill:#51B5AD;" width="7.373" height="6.99"/>
					<g style="opacity:0.5;">
						<rect x="364.908" y="196.38" style="fill:#51B5AD;" width="0.626" height="6.99"/>
						<rect x="366.256" y="196.38" style="fill:#51B5AD;" width="0.626" height="6.99"/>
						<rect x="367.604" y="196.38" style="fill:#51B5AD;" width="0.627" height="6.99"/>
						<rect x="368.952" y="196.38" style="fill:#51B5AD;" width="0.626" height="6.99"/>
						<rect x="370.302" y="196.38" style="fill:#51B5AD;" width="0.625" height="6.99"/>
						<rect x="371.65" y="196.38" style="fill:#51B5AD;" width="0.626" height="6.99"/>
					</g>
					<path style="fill:#51B5AD;" d="M354.918,254.81c-0.373,2.057-0.597,3.275-0.597,3.275h28.535c0,0-0.214-1.218-0.574-3.275
						H354.918z"/>
					<path style="fill:#FFFFFF;" d="M375.14,230.899c0,8.474-2.933,15.345-6.551,15.345c-3.617,0-6.55-6.871-6.55-15.345
						c0-8.475,2.933-15.346,6.55-15.346C372.207,215.554,375.14,222.425,375.14,230.899z"/>
				</g>
			</g>
			<path style="fill:#FFFFFF;" d="M236.777,78.075l-0.372-9.219l-0.203-4.613l-0.118-2.34c-0.052-0.927-0.246-1.836-0.425-2.774
				c-0.667-3.766-7.22-13.798-16.751-13.798c-1.719,2.573-3.277,4.638-6.906,4.638c-3.119,0-5.634-1.91-7.237-4.638
				c-11.039,0-15.831,9.998-16.505,13.768c-0.175,0.938-0.288,1.878-0.339,2.805l-0.116,2.34l-0.201,4.613l-0.374,9.219l-0.1,31.136
				h6.061l1.673-30.761l0.569-9.178l0.294-4.581l0.161-2.262c0.048-0.599,0.134-1.192,0.249-1.756
				c0.117-0.541,0.269-1.059,0.454-1.556v50.093h31.033V59.763c0.089,0.297,0.167,0.6,0.234,0.911
				c0.126,0.563,0.208,1.157,0.257,1.756l0.161,2.262l0.298,4.581l0.569,9.178l1.667,30.761h6.064L236.777,78.075z"/>
			<g>
				<g>
					<rect x="33.298" y="238.673" style="fill:#F8CB9F;" width="2.973" height="15.023"/>
					<rect x="87.195" y="238.673" style="fill:#F8CB9F;" width="2.973" height="15.023"/>
				</g>
				<polygon style="fill:#85C7C6;" points="90.169,238.673 33.298,238.673 41.617,213.165 81.851,213.165 				"/>
				<polygon style="fill:#B1DCE5;" points="84.795,222.194 81.851,213.165 41.617,213.165 38.673,222.194 				"/>
				<rect x="41.602" y="202.399" style="fill:#FBE4CB;" width="40.265" height="10.766"/>
				<rect x="33.298" y="238.673" style="fill:#FBE4CB;" width="56.87" height="10.768"/>
				<g>
					<path style="fill:#FFFFFF;" d="M60.034,216.255c0,0.808-0.655,1.463-1.463,1.463H45.197c-0.808,0-1.464-0.655-1.464-1.463
						v-6.179c0-0.809,0.656-1.463,1.464-1.463H58.57c0.809,0,1.463,0.654,1.463,1.463V216.255z"/>
					<path style="fill:#FFFFFF;" d="M79.733,216.255c0,0.808-0.655,1.463-1.463,1.463H64.898c-0.809,0-1.464-0.655-1.464-1.463
						v-6.179c0-0.809,0.655-1.463,1.464-1.463h13.373c0.808,0,1.463,0.654,1.463,1.463V216.255z"/>
				</g>
			</g>
		</g>
	</g>
</g>
</svg>
